<?xml version="1.0" encoding="UTF-8" standalone="no"?>
<!DOCTYPE svg PUBLIC "-//W3C//DTD SVG 1.1//EN" "http://www.w3.org/Graphics/SVG/1.1/DTD/svg11.dtd">
<svg width="100%" height="100%" viewBox="0 0 3200 3200" version="1.1" xmlns="http://www.w3.org/2000/svg" xmlns:xlink="http://www.w3.org/1999/xlink" xml:space="preserve" xmlns:serif="http://www.serif.com/" style="fill-rule:evenodd;clip-rule:evenodd;stroke-linejoin:round;stroke-miterlimit:2;">
    <g>
        <path d="M1617.44,461.405C2242.42,461.405 2749.83,968.811 2749.83,1593.79C2749.83,2218.78 2242.42,2726.18 1617.44,2726.18C992.459,2726.18 485.053,2218.78 485.053,1593.79C485.053,968.811 992.459,461.405 1617.44,461.405Z" style="fill:white;"/>
        <path d="M1606.79,83.199C2445.96,83.199 3127.27,764.501 3127.27,1603.68C3127.27,2442.86 2445.96,3124.16 1606.79,3124.16C767.617,3124.16 86.314,2442.86 86.314,1603.68C86.314,764.501 767.617,83.199 1606.79,83.199ZM1617.56,718.268C2110.64,718.268 2510.98,1118.6 2510.98,1611.68C2510.98,2104.78 2110.64,2505.1 1617.56,2505.1C1124.46,2505.1 724.133,2104.78 724.133,1611.68C724.133,1118.6 1124.46,718.268 1617.56,718.268Z" style="fill:rgb(2, 126, 82);"/>
    </g>
    <g transform="matrix(0.976855,-0.144477,0.148186,1.00193,31.6137,217.71)">
        <g transform="matrix(0.754768,0.655992,-0.655992,0.754768,1709.19,403.878)">
            <g transform="matrix(507.989,0,0,507.989,314.414,2487.97)">
                <path d="M0.063,-0.024C0.04,-0.047 0.029,-0.074 0.029,-0.107L0.029,-0.618C0.029,-0.651 0.04,-0.678 0.063,-0.701C0.085,-0.724 0.113,-0.735 0.145,-0.735C0.177,-0.735 0.204,-0.723 0.227,-0.7C0.235,-0.693 0.241,-0.685 0.246,-0.676C0.25,-0.667 0.254,-0.658 0.257,-0.647C0.26,-0.637 0.261,-0.627 0.261,-0.617L0.261,-0.471L0.488,-0.471L0.488,-0.617C0.488,-0.632 0.491,-0.647 0.497,-0.662C0.503,-0.677 0.511,-0.689 0.522,-0.7C0.545,-0.723 0.572,-0.735 0.604,-0.735C0.619,-0.735 0.634,-0.732 0.648,-0.726C0.663,-0.721 0.676,-0.712 0.686,-0.701C0.694,-0.694 0.7,-0.686 0.705,-0.677C0.709,-0.668 0.713,-0.659 0.716,-0.648C0.719,-0.638 0.72,-0.628 0.72,-0.618L0.72,-0.107C0.72,-0.092 0.717,-0.077 0.711,-0.062C0.705,-0.047 0.697,-0.035 0.686,-0.024C0.664,-0.001 0.637,0.01 0.605,0.01C0.59,0.01 0.575,0.007 0.562,0.002C0.549,-0.004 0.536,-0.012 0.523,-0.024C0.5,-0.046 0.489,-0.073 0.489,-0.107L0.489,-0.269L0.26,-0.269L0.26,-0.107C0.26,-0.073 0.249,-0.045 0.226,-0.024C0.215,-0.013 0.202,-0.004 0.188,0.001C0.174,0.007 0.16,0.01 0.145,0.01C0.113,0.01 0.085,-0.001 0.063,-0.024Z" style="fill:white;fill-rule:nonzero;"/>
            </g>
        </g>
        <g transform="matrix(0.950042,0.312122,-0.312122,0.950042,916.086,-89.0727)">
            <g transform="matrix(507.989,0,0,507.989,736.292,2817.18)">
                <path d="M0.087,-0.156C0.072,-0.177 0.06,-0.199 0.05,-0.222C0.04,-0.245 0.033,-0.269 0.028,-0.292C0.023,-0.316 0.02,-0.34 0.02,-0.364C0.02,-0.387 0.023,-0.411 0.028,-0.435C0.033,-0.458 0.04,-0.482 0.05,-0.506C0.06,-0.529 0.073,-0.551 0.087,-0.572C0.11,-0.606 0.139,-0.635 0.172,-0.66C0.205,-0.685 0.241,-0.704 0.281,-0.717C0.321,-0.73 0.361,-0.737 0.403,-0.737C0.434,-0.737 0.465,-0.733 0.495,-0.726C0.526,-0.718 0.555,-0.707 0.583,-0.693C0.611,-0.678 0.636,-0.661 0.659,-0.641C0.682,-0.62 0.702,-0.597 0.719,-0.572C0.764,-0.507 0.786,-0.438 0.786,-0.364C0.786,-0.327 0.78,-0.291 0.769,-0.256C0.758,-0.22 0.741,-0.187 0.719,-0.156C0.702,-0.131 0.681,-0.108 0.658,-0.087C0.634,-0.066 0.609,-0.048 0.583,-0.035C0.557,-0.021 0.528,-0.01 0.497,-0.002C0.465,0.006 0.434,0.01 0.403,0.01C0.361,0.01 0.321,0.003 0.281,-0.01C0.241,-0.023 0.205,-0.042 0.172,-0.067C0.138,-0.092 0.11,-0.122 0.087,-0.156ZM0.249,-0.364C0.249,-0.332 0.256,-0.302 0.27,-0.276C0.284,-0.25 0.302,-0.229 0.325,-0.215C0.349,-0.2 0.374,-0.193 0.402,-0.193C0.412,-0.193 0.422,-0.194 0.432,-0.196C0.451,-0.2 0.467,-0.207 0.482,-0.216C0.497,-0.226 0.511,-0.238 0.522,-0.253C0.534,-0.268 0.543,-0.285 0.549,-0.303C0.555,-0.322 0.558,-0.342 0.558,-0.363C0.558,-0.373 0.557,-0.384 0.555,-0.395C0.55,-0.423 0.541,-0.448 0.527,-0.468C0.512,-0.489 0.495,-0.505 0.473,-0.517C0.452,-0.528 0.428,-0.534 0.403,-0.534C0.375,-0.534 0.349,-0.527 0.325,-0.512C0.302,-0.498 0.283,-0.478 0.27,-0.451C0.256,-0.425 0.249,-0.396 0.249,-0.364Z" style="fill:white;fill-rule:nonzero;"/>
            </g>
        </g>
        <g transform="matrix(0.994413,-0.105555,0.105555,0.994413,-306.079,151.879)">
            <g transform="matrix(507.989,0,0,507.989,1281.8,2967.55)">
                <path d="M0.011,-0.09C0.011,-0.107 0.012,-0.12 0.012,-0.128L0.094,-0.608C0.098,-0.636 0.109,-0.66 0.125,-0.681C0.141,-0.702 0.161,-0.716 0.185,-0.725C0.206,-0.733 0.226,-0.737 0.246,-0.737C0.28,-0.737 0.31,-0.727 0.337,-0.707C0.363,-0.687 0.381,-0.66 0.39,-0.627L0.464,-0.374L0.538,-0.627C0.548,-0.66 0.566,-0.687 0.593,-0.707C0.62,-0.727 0.65,-0.737 0.683,-0.737C0.703,-0.737 0.723,-0.733 0.744,-0.725C0.769,-0.716 0.789,-0.702 0.804,-0.681C0.82,-0.661 0.83,-0.636 0.835,-0.608L0.916,-0.128C0.917,-0.12 0.918,-0.107 0.918,-0.09C0.915,-0.062 0.903,-0.039 0.881,-0.02C0.859,-0.001 0.834,0.008 0.805,0.008C0.792,0.008 0.78,0.006 0.767,0.002C0.746,-0.006 0.729,-0.018 0.715,-0.034C0.701,-0.051 0.693,-0.07 0.691,-0.091L0.656,-0.381L0.564,-0.077C0.557,-0.052 0.548,-0.034 0.538,-0.021C0.528,-0.009 0.516,0 0.501,0.005C0.485,0.01 0.472,0.013 0.461,0.013C0.439,0.013 0.419,0.006 0.403,-0.01C0.386,-0.025 0.374,-0.048 0.365,-0.077L0.272,-0.381L0.238,-0.091C0.236,-0.07 0.228,-0.051 0.214,-0.034C0.2,-0.018 0.183,-0.006 0.162,0.002C0.149,0.006 0.136,0.008 0.124,0.008C0.095,0.008 0.07,-0.001 0.048,-0.02C0.027,-0.039 0.014,-0.062 0.011,-0.09Z" style="fill:white;fill-rule:nonzero;"/>
            </g>
        </g>
        <g transform="matrix(0.883951,-0.467579,0.467579,0.883951,-1115.11,1217.22)">
            <g transform="matrix(507.989,0,0,507.989,1894.63,2855.09)">
                <path d="M0.038,-0.075C0.032,-0.09 0.029,-0.104 0.029,-0.119L0.029,-0.61C0.029,-0.632 0.034,-0.652 0.044,-0.669C0.054,-0.687 0.068,-0.701 0.085,-0.712C0.103,-0.722 0.123,-0.727 0.145,-0.727L0.42,-0.727C0.437,-0.727 0.452,-0.723 0.468,-0.714C0.483,-0.705 0.495,-0.693 0.504,-0.677C0.513,-0.662 0.517,-0.645 0.517,-0.626C0.517,-0.607 0.513,-0.59 0.504,-0.575C0.495,-0.559 0.483,-0.547 0.468,-0.538C0.452,-0.528 0.436,-0.524 0.418,-0.524L0.26,-0.524L0.26,-0.463L0.39,-0.463C0.404,-0.463 0.418,-0.46 0.432,-0.454C0.445,-0.449 0.457,-0.441 0.467,-0.431C0.477,-0.423 0.484,-0.413 0.489,-0.401C0.494,-0.389 0.497,-0.376 0.497,-0.364C0.497,-0.337 0.487,-0.314 0.466,-0.294C0.443,-0.275 0.418,-0.265 0.391,-0.265L0.26,-0.265L0.26,-0.202L0.41,-0.202C0.44,-0.202 0.466,-0.192 0.488,-0.171C0.498,-0.162 0.506,-0.151 0.511,-0.139C0.516,-0.126 0.519,-0.113 0.519,-0.1C0.519,-0.072 0.509,-0.049 0.489,-0.03C0.466,-0.01 0.441,0 0.413,0L0.144,0C0.123,0 0.102,-0.007 0.083,-0.02C0.063,-0.034 0.049,-0.052 0.038,-0.075Z" style="fill:white;fill-rule:nonzero;"/>
            </g>
        </g>
    </g>
    <g transform="matrix(0.970988,0.239127,-0.239127,0.970988,1265.68,23.4502)">
        <g transform="matrix(0.721175,-0.692752,0.692752,0.721175,-628.766,168.916)">
            <g transform="matrix(550,0,0,550,-104.544,865.557)">
                <path d="M0.079,-0.034C0.054,-0.05 0.036,-0.065 0.027,-0.081C0.018,-0.096 0.013,-0.115 0.013,-0.139C0.014,-0.161 0.02,-0.18 0.03,-0.195C0.049,-0.223 0.072,-0.237 0.101,-0.237C0.113,-0.237 0.125,-0.236 0.136,-0.233L0.18,-0.221L0.22,-0.211L0.249,-0.204L0.26,-0.201C0.267,-0.2 0.273,-0.199 0.277,-0.198C0.29,-0.196 0.302,-0.195 0.312,-0.195C0.322,-0.195 0.332,-0.196 0.34,-0.199C0.352,-0.203 0.36,-0.206 0.364,-0.21C0.37,-0.215 0.373,-0.221 0.373,-0.227C0.373,-0.234 0.37,-0.24 0.363,-0.244C0.361,-0.245 0.359,-0.246 0.355,-0.247L0.336,-0.254L0.323,-0.258L0.27,-0.271L0.26,-0.273L0.194,-0.292C0.158,-0.302 0.127,-0.314 0.102,-0.33C0.075,-0.348 0.054,-0.37 0.039,-0.398C0.024,-0.426 0.017,-0.456 0.017,-0.489C0.017,-0.515 0.022,-0.541 0.032,-0.567C0.042,-0.593 0.057,-0.617 0.076,-0.638C0.098,-0.662 0.126,-0.682 0.16,-0.699C0.194,-0.715 0.232,-0.726 0.275,-0.731C0.292,-0.733 0.309,-0.734 0.327,-0.734C0.364,-0.734 0.4,-0.729 0.434,-0.719C0.472,-0.708 0.5,-0.695 0.518,-0.681C0.537,-0.667 0.549,-0.649 0.555,-0.628C0.558,-0.615 0.56,-0.603 0.56,-0.593C0.56,-0.572 0.555,-0.554 0.544,-0.539C0.534,-0.525 0.523,-0.514 0.51,-0.507C0.498,-0.5 0.483,-0.497 0.466,-0.497C0.448,-0.497 0.427,-0.5 0.404,-0.507L0.396,-0.51L0.367,-0.519L0.313,-0.532L0.303,-0.534C0.301,-0.535 0.299,-0.535 0.298,-0.535C0.296,-0.535 0.293,-0.535 0.29,-0.535C0.271,-0.535 0.259,-0.532 0.252,-0.527C0.246,-0.522 0.243,-0.516 0.243,-0.51C0.243,-0.506 0.245,-0.502 0.249,-0.499C0.253,-0.496 0.258,-0.494 0.265,-0.492L0.291,-0.485L0.311,-0.48L0.344,-0.472L0.41,-0.453C0.445,-0.443 0.474,-0.432 0.497,-0.42C0.515,-0.411 0.531,-0.4 0.545,-0.387C0.559,-0.374 0.57,-0.36 0.58,-0.344C0.589,-0.328 0.597,-0.311 0.601,-0.294C0.606,-0.278 0.608,-0.26 0.608,-0.241C0.608,-0.188 0.589,-0.139 0.552,-0.095C0.494,-0.026 0.41,0.009 0.298,0.009C0.289,0.009 0.275,0.008 0.255,0.007C0.176,0.002 0.117,-0.011 0.079,-0.034Z" style="fill:white;fill-rule:nonzero;"/>
            </g>
        </g>
        <g transform="matrix(0.901426,-0.432932,0.432932,0.901426,-258.65,124.255)">
            <g transform="matrix(550,0,0,550,143.537,630.12)">
                <path d="M-0.008,-0.628C-0.007,-0.646 -0.002,-0.663 0.006,-0.678C0.015,-0.694 0.027,-0.705 0.042,-0.714C0.057,-0.723 0.073,-0.727 0.091,-0.727L0.482,-0.727C0.5,-0.727 0.517,-0.722 0.532,-0.713C0.547,-0.704 0.559,-0.691 0.568,-0.676C0.577,-0.66 0.581,-0.643 0.581,-0.624C0.58,-0.596 0.57,-0.573 0.55,-0.554C0.531,-0.535 0.508,-0.525 0.482,-0.525L0.398,-0.525L0.398,-0.106C0.398,-0.085 0.393,-0.066 0.383,-0.049C0.372,-0.031 0.359,-0.018 0.342,-0.008C0.324,0.003 0.305,0.008 0.284,0.008C0.263,0.008 0.243,0.003 0.226,-0.008C0.208,-0.018 0.195,-0.032 0.184,-0.05C0.174,-0.068 0.169,-0.087 0.169,-0.108L0.169,-0.527L0.09,-0.527C0.063,-0.527 0.04,-0.537 0.021,-0.557C0.002,-0.576 -0.008,-0.6 -0.008,-0.628Z" style="fill:white;fill-rule:nonzero;"/>
            </g>
        </g>
        <g transform="matrix(0.994211,-0.107448,0.107448,0.994211,-49.9093,48.9932)">
            <g transform="matrix(550,0,0,550,429.696,487.649)">
                <path d="M0.054,0.001C0.032,-0.009 0.014,-0.022 0.002,-0.04C-0.01,-0.057 -0.016,-0.077 -0.016,-0.1C-0.016,-0.117 -0.012,-0.138 -0.003,-0.162L0.169,-0.606C0.185,-0.647 0.208,-0.678 0.239,-0.7C0.269,-0.722 0.304,-0.733 0.343,-0.733C0.382,-0.733 0.417,-0.722 0.448,-0.7C0.478,-0.678 0.501,-0.647 0.517,-0.606L0.689,-0.162C0.698,-0.136 0.702,-0.116 0.702,-0.1C0.702,-0.077 0.696,-0.057 0.684,-0.04C0.672,-0.022 0.654,-0.009 0.632,0.001C0.616,0.008 0.6,0.011 0.584,0.011C0.561,0.011 0.539,0.004 0.52,-0.011C0.5,-0.025 0.486,-0.046 0.476,-0.072L0.465,-0.105L0.222,-0.105L0.21,-0.072C0.201,-0.046 0.187,-0.026 0.167,-0.011C0.148,0.004 0.126,0.011 0.102,0.011C0.086,0.011 0.07,0.008 0.054,0.001ZM0.289,-0.306L0.397,-0.306L0.343,-0.5L0.289,-0.306Z" style="fill:white;fill-rule:nonzero;"/>
            </g>
        </g>
        <g transform="matrix(0.969555,0.244874,-0.244874,0.969555,134.663,-184.409)">
            <g transform="matrix(550,0,0,550,808.943,449.35)">
                <path d="M0.038,-0.71C0.061,-0.727 0.083,-0.735 0.106,-0.735C0.142,-0.735 0.176,-0.716 0.207,-0.678L0.32,-0.538L0.434,-0.678C0.465,-0.716 0.499,-0.735 0.535,-0.735C0.558,-0.735 0.58,-0.727 0.603,-0.71C0.615,-0.701 0.625,-0.689 0.634,-0.674C0.645,-0.655 0.65,-0.635 0.65,-0.614C0.65,-0.588 0.642,-0.567 0.627,-0.55L0.436,-0.341L0.436,-0.109C0.436,-0.077 0.425,-0.049 0.403,-0.026C0.381,-0.002 0.354,0.01 0.321,0.01C0.289,0.01 0.261,-0.002 0.238,-0.026C0.216,-0.048 0.205,-0.075 0.205,-0.109L0.205,-0.341L0.014,-0.55C-0.001,-0.567 -0.009,-0.588 -0.009,-0.614C-0.009,-0.634 -0.004,-0.654 0.007,-0.674C0.016,-0.689 0.026,-0.701 0.038,-0.71Z" style="fill:white;fill-rule:nonzero;"/>
            </g>
        </g>
    </g>
    <g transform="matrix(1.2988,0,0,1.2988,793.93,794.394)">
        <g transform="matrix(0.402543,0,0,0.402543,5.15542,-29.4631)">
            <path d="M1361.38,508.877C1423.22,498.144 1486.78,492.552 1551.63,492.552C1567.7,492.552 1583.69,492.895 1599.59,493.575C1600.87,487.176 1601.76,480.865 1602.17,474.684C1607.23,399.485 1526.68,377.696 1530.91,314.847C1531.97,299.128 1538.67,286.788 1548.66,277.152C1569.39,255.678 1606.66,244.684 1649.53,245.189C1654.96,245.084 1659.8,245.201 1663.82,245.471C1668.15,245.762 1673.39,246.335 1679.23,247.237C1721.99,252.49 1754.21,266.832 1771.26,288.444C1780.73,299.274 1786.34,312.551 1785.25,328.71C1785.11,330.77 1784.87,332.811 1784.53,334.835C1783.76,341.736 1781.55,348.316 1778.1,354.473C1754.99,402.509 1684.71,440.038 1682.01,480.219C1681.65,485.639 1682.27,492.488 1683.67,500.365C1735.12,506.494 1785.49,516.159 1834.53,529.109C1846.46,520.97 1861.13,511.817 1878.72,501.396C1929.6,471.251 2017.08,300.898 2000.47,269.112C1948.11,168.906 1966.92,118.707 2097.78,170.443C2227.64,221.785 2208.25,267.904 2101.28,307.942C2067.35,320.638 1992.59,462.105 2025.24,561.061C2030.81,577.943 2035.24,592.63 2038.56,605.337C2101.91,636.458 2161.85,673.463 2217.67,715.635C2266.33,682.302 2337.07,604.635 2334.45,582.99C2324.5,500.517 2350.36,467.421 2426.63,528.95C2502.31,590.01 2477.1,620.03 2393.46,629.642C2370.55,632.274 2301.91,699.276 2281.57,767.73C2287.01,772.517 2292.41,777.357 2297.78,782.267C2306.26,744.55 2308.49,707.047 2342.2,680.614C2357.11,668.926 2373.07,664.411 2388.98,664.668C2423.33,664.01 2460.26,684.852 2490.9,719.307C2494.93,723.533 2498.34,727.476 2501.01,730.884C2503.89,734.554 2507.17,739.17 2510.6,744.53C2536.88,782.675 2547.35,819.701 2540.27,850.466C2537.4,866.615 2529.52,881.654 2514.2,893.669C2512.25,895.197 2510.24,896.626 2508.18,897.965C2501.41,902.859 2493.88,906.356 2485.83,908.524C2466.54,914.935 2444.68,916.603 2422.65,916.911C2453.47,956.201 2481.69,997.626 2507.04,1040.89C2513.92,1040.95 2521.23,1041.07 2528.97,1041.25C2589.39,1042.68 2776.88,950.08 2786.51,916.228C2816.86,809.51 2866.74,778.715 2931,886.063C2994.78,992.595 2947.32,1019.82 2836.73,998.1C2801.66,991.209 2644.34,1067.05 2599.69,1162.84C2593.67,1175.77 2588.06,1187.24 2582.81,1197.33C2618.7,1289.28 2642.63,1387.19 2652.7,1489.14C2683.03,1500.57 2714.23,1508.4 2742.46,1508.07C2829.61,1507.03 2847.38,1412.19 2920.22,1411.33C2938.44,1411.11 2953.27,1417.71 2965.29,1428.34C2991.94,1450.27 3008.02,1492.24 3011.35,1541.71C3011.97,1547.96 3012.27,1553.56 3012.33,1558.22C3012.39,1563.23 3012.21,1569.32 3011.7,1576.14C3009.55,1625.91 2995.95,1664.37 2972.59,1685.99C2960.98,1697.9 2946.18,1705.58 2927.45,1705.8C2925.07,1705.83 2922.7,1705.73 2920.35,1705.52C2912.31,1705.27 2904.52,1703.33 2897.1,1699.9C2839.61,1677.65 2789.93,1600.06 2743.37,1600.61C2724.71,1600.83 2692.31,1612.3 2657.74,1627.29C2654.88,1741.2 2634.76,1850.86 2599.9,1953.8C2654.35,1983.86 2726.26,2009.82 2743.36,2000.54C2824.1,1956.72 2867.45,1970.41 2832.47,2075.2C2797.75,2179.19 2757.78,2164.94 2717.27,2081.24C2708.03,2062.15 2641.53,2027.93 2574.79,2020.69C2536.32,2113.86 2485.48,2200.64 2424.29,2279.01C2451.63,2308.46 2479.32,2331.64 2491.41,2331.05C2574.39,2327 2605.55,2355.16 2538.75,2426.85C2472.45,2497.99 2444.3,2470.7 2440.67,2386.59C2440.12,2373.77 2420.69,2345.39 2392.05,2318.42C2372,2341.82 2350.98,2364.38 2329.09,2386.01C2364.93,2391.93 2400.16,2394.56 2423.49,2425.2C2434.52,2439.7 2438.07,2455.55 2436.69,2471.54C2434.97,2506 2410.86,2543.93 2373.12,2576.1C2368.47,2580.32 2364.16,2583.9 2360.45,2586.72C2358.64,2588.1 2356.62,2589.57 2354.42,2591.1C2380.53,2641.84 2414.76,2689.52 2432.59,2691.34C2532.6,2701.54 2560.65,2740.08 2458.18,2811.87C2356.49,2883.11 2331.76,2846.14 2354.42,2747.14C2358.96,2727.34 2333.4,2670.36 2291.45,2624.91C2270.66,2632.06 2251.27,2634.19 2234.17,2630.99C2217.69,2628.75 2202.71,2621.45 2191.37,2606.55C2189.92,2604.65 2188.59,2602.7 2187.35,2600.68C2182.76,2594.08 2179.68,2586.66 2178,2578.66C2176.2,2572.13 2174.99,2565.28 2174.23,2558.2C2155.33,2552.24 2141.39,2546.68 2131.76,2541.18C2076.95,2575.03 2018.95,2604.24 1958.31,2628.24C1954.27,2641.17 1949.08,2656.09 1942.74,2673.21C1921.81,2729.74 1960.78,2922.39 1993.94,2937.44C2098.48,2984.93 2115.44,3037.27 1979.85,3078.59C1845.3,3119.6 1831.37,3070.17 1890.14,2970.1C1908.78,2938.37 1878.08,2777.05 1789.82,2718.08C1773.05,2706.86 1759.1,2696.95 1747.79,2688.12C1707.28,2695.38 1666.02,2700.43 1624.12,2703.15C1618.79,2715.2 1606.47,2732.31 1586.48,2756.7C1559.65,2789.42 1542.16,2925.65 1560.98,2943.05C1620.29,2997.91 1619.81,3036.36 1519.58,3033.31C1420.11,3030.29 1421.97,2994.46 1484.01,2941.4C1503.69,2924.58 1519.63,2810.93 1473.83,2752.12C1455.64,2728.76 1444.46,2711.93 1439.46,2699.86C1408.66,2696.76 1378.22,2692.38 1348.27,2686.81C1337.77,2699.22 1323.02,2714.3 1303.64,2732.81C1263.46,2771.2 1212.34,2949.3 1231.76,2976.14C1293.01,3060.74 1284.07,3111.87 1161.14,3088.34C1039.14,3064.99 1049.2,3017.61 1137.22,2958.98C1150.51,2950.12 1167.52,2911.86 1176.97,2864.78C1160.81,2869.55 1142.2,2869.2 1123.31,2864C1119.61,2863.15 1116.36,2862.2 1113.72,2861.25C1110.87,2860.24 1107.48,2858.81 1103.78,2856.98C1076.29,2844.81 1058.37,2826.32 1052.69,2803.95C1049.21,2792.58 1049.01,2779.7 1054.12,2765.4C1054.76,2763.58 1055.48,2761.81 1056.25,2760.05C1058.64,2753.99 1061.92,2748.46 1065.93,2743.53C1087.83,2713.64 1126.75,2694.09 1149.5,2670.62C1140.64,2650.46 1135.5,2635.16 1133.84,2623.78C1084.58,2603.65 1037.08,2580.07 991.671,2553.35C981.26,2563.13 960.951,2574.77 928.444,2590.64C888.273,2610.25 798.937,2734.77 804.939,2760.26C823.854,2840.63 802.328,2877.8 721.097,2829.19C640.484,2780.95 661.715,2746.95 742.191,2723.6C767.71,2716.2 843.349,2612.94 837.79,2534.89C834.238,2485.01 836.402,2459.82 845.503,2450.64C788.185,2403.05 735.741,2349.79 689.009,2291.69C680.727,2296.29 673.082,2301.38 666.335,2307.01C612.056,2352.28 649.991,2421.68 604.625,2459.51C593.279,2468.98 580.531,2472.38 567.467,2471.77C539.352,2471.47 507.507,2453.01 479.794,2423.26C476.173,2419.61 473.08,2416.2 470.634,2413.27C467.999,2410.11 464.96,2406.15 461.752,2401.56C437.334,2368.81 425.967,2337.39 429.463,2311.68C430.611,2298.16 435.94,2285.71 447.599,2275.99C449.082,2274.75 450.62,2273.6 452.212,2272.52C457.398,2268.57 463.309,2265.81 469.752,2264.19C517.423,2248.92 588.844,2272.82 617.847,2248.63C623.965,2243.53 630.865,2234.49 638.065,2223.11C616.696,2191.91 596.883,2159.55 578.755,2126.19C568.223,2135.88 539.342,2131 480.895,2112.47C431.26,2096.74 268.944,2139.73 258.117,2169.47C223.981,2263.22 180.269,2280.49 136.552,2163.62C93.167,2047.63 134.575,2033.16 223.778,2080.04C252.064,2094.91 388.102,2060.6 433.075,1980.58C458.263,1935.77 475.332,1913.01 488.776,1907.4C467.959,1835.62 454.224,1760.87 448.374,1683.92C389.145,1675.01 294.574,1679.84 281.772,1696C230.195,1761.12 188.479,1766.04 178.508,1668.56C168.614,1571.82 207.684,1568.6 273.377,1621.24C290.898,1635.29 382.275,1637.18 445.18,1606.13C445.166,1603.78 445.158,1601.4 445.158,1599.02C445.158,1540.46 449.718,1482.95 458.512,1426.77C448.654,1416.5 437.279,1403.52 424.035,1387.64C412.738,1374.09 387.393,1358.53 357.213,1344.18C314.165,1352.88 280.191,1383.76 235.975,1368.22C220.654,1362.84 210.083,1353.24 203.013,1341.39C195.515,1329.79 191.144,1315.54 189.729,1299.7C189.047,1299.99 188.425,1300.32 187.862,1300.67C100.063,1356.2 50.03,1344.06 81.419,1223.29C112.261,1104.62 157.905,1116.22 209.529,1205.06C225.028,1172.05 245.785,1149.68 269.476,1140.89C282.567,1135.27 297.118,1133.88 312.861,1139.41C314.864,1140.11 316.821,1140.91 318.739,1141.79C325.399,1144.43 331.383,1148.3 336.637,1153.2C370.913,1181.55 390.372,1236.84 417.778,1263.52C432.933,1261.55 447.489,1257.93 460.826,1252.26C478.661,1244.68 493.858,1238.76 506.727,1234.44C528.215,1172.91 554.99,1113.86 586.507,1057.83C550.691,1032.27 514.255,1012.66 501.654,1016.14C421.576,1038.24 385.004,1017.58 434.519,933.019C483.657,849.103 517.09,869.574 539.021,950.854C542.734,964.62 573.376,992.016 612.951,1013.28C649.956,954.136 692.397,898.731 739.569,847.776C738.605,841.619 737.645,835.098 736.679,828.183C734.71,814.086 725.668,794.044 712.771,772.07C698.058,770.083 684.279,765.286 672.218,753.692C661.452,743.344 656.578,730.96 655.674,717.838C654.867,710.165 655.376,702.073 657.083,693.733C627.023,657.617 596.604,629.508 582.036,629.62C478.155,630.415 442.076,593.688 532.502,507.699C622.241,422.365 654.639,457.848 650.822,562.95C650.342,576.148 664.788,603.163 688.358,631.9C690.158,629.63 692.024,627.372 693.953,625.129C697.184,621.126 700.223,617.679 702.869,614.926C705.718,611.962 709.326,608.509 713.538,604.822C743.414,576.985 773.469,562.332 799.554,563.131C813.189,562.861 826.241,566.883 837.304,577.516C838.711,578.869 840.041,580.285 841.299,581.764C845.847,586.533 849.284,592.152 851.652,598.421C868.528,635.818 861.413,691.583 872.89,725.381C935.908,676.34 1004.35,633.963 1077.17,599.306C1056.94,553.449 1030.11,509.357 1015.72,505.911C934.935,486.56 912.903,450.796 997.116,400.695C1080.69,350.975 1100.07,385.055 1079.99,466.811C1075.99,483.061 1095.4,533.668 1128.17,576.606C1157.69,564.346 1187.87,553.33 1218.62,543.628C1220.59,539.923 1222.66,536.084 1224.83,532.102C1250.02,485.95 1239.51,316.004 1212.38,299.256C1126.84,246.451 1118.41,199.539 1241.93,179.639C1364.51,159.891 1370.64,203.95 1307.06,283.145C1287.15,307.949 1293.85,446.867 1361.38,508.877Z" style="fill:rgb(128,195,65);"/>
        </g>
        <g transform="matrix(0.71681,0,0,0.71681,87.1388,74.9579)">
            <path d="M1102.25,1192.59C1102.25,1209.67 1084.17,1223.48 1061.87,1223.48C1061.87,1223.48 900.379,1255.44 750.769,1255.44C632.358,1255.44 441.123,1223.48 441.123,1223.48C418.848,1223.48 400.774,1209.67 400.774,1192.59L400.774,902.364C400.774,885.246 418.847,871.477 441.123,871.477C441.123,871.477 623.77,903.082 750.769,901.457C874.527,899.873 1061.87,871.477 1061.87,871.477C1084.17,871.477 1102.25,885.246 1102.25,902.364L1102.25,1192.59Z" style="fill:white;fill-rule:nonzero;"/>
            <path d="M451.286,939.711C450.667,941.71 448.454,942.803 446.345,942.15L140.582,848.203C138.472,847.55 137.263,845.398 137.881,843.399L133.772,809.4C134.391,807.4 136.604,806.308 138.714,806.962L457.648,905.619C459.758,906.272 460.967,908.423 460.349,910.423L451.286,939.711Z" style="fill:white;fill-rule:nonzero;"/>
            <g transform="matrix(1,0,0,1,10.6699,0)">
                <path d="M642.712,1121.81C643.343,1123.81 642.147,1125.97 640.041,1126.63L334.21,1225.76C332.104,1226.42 329.884,1225.34 329.254,1223.35L304.381,1196.59C303.75,1194.59 304.946,1192.43 307.052,1191.77L628.516,1090.17C630.622,1089.5 632.842,1090.58 633.473,1092.58L642.712,1121.81Z" style="fill:white;fill-rule:nonzero;"/>
            </g>
            <path d="M1054.15,939.711C1054.77,941.71 1056.98,942.803 1059.09,942.15L1371.01,846.578C1373.12,845.925 1373.23,844.263 1373.71,841.774L1377.98,807.833C1378.09,805.842 1378.23,803.952 1376.12,804.606L1047.79,905.619C1045.68,906.272 1044.47,908.423 1045.09,910.423L1054.15,939.711Z" style="fill:white;fill-rule:nonzero;"/>
            <path d="M857.287,1121.81C856.656,1123.81 857.853,1125.97 859.959,1126.63L1163.51,1224.72C1165.62,1225.39 1167.83,1224.31 1168.46,1222.31L1195.62,1196.59C1196.25,1194.59 1195.05,1192.43 1192.95,1191.77L871.482,1090.17C869.377,1089.5 867.156,1090.58 866.525,1092.58L857.287,1121.81Z" style="fill:white;fill-rule:nonzero;"/>
        </g>
        <g transform="matrix(0.675601,0,0,0.675601,125.675,104.988)">
            <path d="M434.723,844.698C276.066,844.698 146.916,715.62 146.916,556.879C146.916,398.191 276.041,269.072 434.723,269.072C593.4,269.072 722.458,398.235 722.458,556.879C722.458,715.62 593.4,844.698 434.723,844.698Z" style="fill:white;fill-rule:nonzero;"/>
            <path d="M432.565,405.891C520.937,405.891 592.552,477.503 592.552,565.834C592.552,654.163 520.937,725.774 432.565,725.774C344.231,725.774 272.601,654.162 272.601,565.834C272.601,477.503 344.23,405.891 432.565,405.891Z" style="fill:rgb(35,31,32);fill-rule:nonzero;"/>
            <path d="M473.213,473.724C495.735,473.724 513.994,491.997 513.994,514.5C513.994,536.979 495.735,555.325 473.213,555.325C450.707,555.325 432.419,536.979 432.419,514.5C432.419,491.998 450.708,473.724 473.213,473.724Z" style="fill:white;fill-rule:nonzero;"/>
            <path d="M430.122,291.427C576.187,291.427 694.395,409.697 694.395,555.735C694.395,611.703 676.984,663.616 647.272,706.344C599.556,774.965 520.115,819.899 430.122,819.899C284.234,819.899 165.941,701.632 165.941,555.671C165.927,409.696 284.234,291.427 430.122,291.427M430.122,244.354C258.493,244.354 118.848,384.031 118.848,555.671C118.848,727.303 258.493,866.966 430.122,866.966C601.803,866.966 741.457,727.303 741.457,555.631C741.48,383.987 601.838,244.354 430.122,244.354Z" style="fill:rgb(78,184,72);fill-rule:nonzero;"/>
        </g>
        <g transform="matrix(0.675601,0,0,0.675601,125.675,104.988)">
            <path d="M1051.61,844.698C892.948,844.698 763.857,715.62 763.857,556.879C763.857,398.235 892.907,269.072 1051.61,269.072C1210.28,269.072 1339.45,398.167 1339.45,556.879C1339.45,715.62 1210.28,844.698 1051.61,844.698Z" style="fill:white;fill-rule:nonzero;"/>
            <path d="M1053.77,405.891C1142.13,405.891 1213.75,477.503 1213.75,565.834C1213.75,654.217 1142.13,725.827 1053.77,725.827C965.397,725.827 893.762,654.217 893.762,565.834C893.762,477.503 965.396,405.891 1053.77,405.891Z" style="fill:rgb(35,31,32);fill-rule:nonzero;"/>
            <path d="M1013.11,473.724C1035.64,473.724 1053.92,491.936 1053.92,514.5C1053.92,536.979 1035.64,555.325 1013.11,555.325C990.597,555.325 972.321,536.979 972.321,514.5C972.321,491.937 990.598,473.724 1013.11,473.724Z" style="fill:white;fill-rule:nonzero;"/>
        </g>
        <g transform="matrix(0.675601,0,0,0.675601,125.675,104.988)">
            <path d="M1056.18,291.427C1202.08,291.427 1320.41,409.697 1320.37,555.671C1320.37,701.585 1202.08,819.899 1056.18,819.899C910.179,819.899 791.93,701.55 791.93,555.671C791.952,409.696 910.144,291.427 1056.18,291.427M1056.18,244.354C884.501,244.354 744.868,383.988 744.868,555.631C744.868,727.304 884.524,866.966 1056.18,866.966C1227.83,866.966 1367.48,727.303 1367.48,555.671C1367.48,384.031 1227.83,244.354 1056.18,244.354Z" style="fill:rgb(78,184,72);fill-rule:nonzero;"/>
        </g>
    </g>
</svg>
